<svg width="222" height="525" viewBox="0 0 222 525" fill="none" xmlns="http://www.w3.org/2000/svg">
<g clip-path="url(#clip0_19_24)">
<path d="M69.2319 0.459896C83.3236 50.388 97.2584 101.684 111.036 154.348C123.502 104.609 136.11 53.4894 148.861 0.990545L217.323 1.45044C193.19 85.7528 169.828 165.562 146.936 241.622C172.866 328.153 198.282 419.389 222.458 515.932C200.322 506.994 178.029 498.397 155.579 490.143C140.86 429.649 125.898 370.982 110.694 314.144C96.8875 364.45 83.1952 413.257 69.617 460.568C47.367 453.492 24.9886 446.665 2.48181 440.085C26.3578 373.223 50.4478 303.177 74.7089 229.24C50.1483 149.148 25.2024 72.9465 0 0L69.2319 0.459896Z" fill="#E31018"/>
</g>
<defs>
<clipPath id="clip0_19_24">
<rect width="222" height="525" fill="white"/>
</clipPath>
</defs>
</svg>
