<svg width="243" height="525" viewBox="0 0 243 525" fill="none" xmlns="http://www.w3.org/2000/svg">
<path d="M151.691 70.1518C146.471 58.5129 136.715 52.7111 122.424 52.888C118.691 52.8906 115.004 53.5662 111.619 54.8675C108.235 56.1689 105.234 58.0649 102.827 60.4232C96.4969 67.4658 92.2342 75.6286 90.3751 84.267C86.7582 98.4286 84.4552 112.798 83.4861 127.25C81.9885 144.938 81.0472 166.553 80.5765 192.059C80.063 219.299 80.4767 241.256 81.8174 257.931C82.4202 270.915 84.7155 283.808 88.6635 296.385C91.8869 305.347 96.066 311.243 101.201 314.073C106.522 316.924 112.868 318.174 119.172 317.611C124.784 317.188 130.202 315.699 135.003 313.26C140.833 309.837 145.301 305.06 147.84 299.534C152.23 290.646 155.193 281.322 156.654 271.798C159.183 256.416 160.427 240.908 160.377 225.384C181.657 224.464 202.937 223.733 224.218 223.191C224.168 241.254 222.739 259.297 219.939 277.211C217.604 292.835 212.425 308.078 204.578 322.422C197.672 335.07 186.944 346.035 173.428 354.261C160.035 362.292 142.791 367.103 121.611 368.907C97.478 370.923 78.3943 368.553 64.3169 361.266C50.2395 353.978 39.4139 341.985 32.2683 326.278C24.3894 307.417 19.8918 287.704 18.9183 267.765C17.1782 244.653 16.6219 219.04 17.2495 190.927C17.763 163.051 19.446 137.332 22.2985 113.771C24.2145 93.0826 29.4818 72.7004 37.9591 53.171C44.4281 37.8804 55.7837 24.3233 70.8207 13.9384C84.9837 4.59896 103.768 0 127.302 0C149.694 0 167.295 4.11548 180.103 12.3464C192.841 20.422 202.75 31.1545 208.814 43.4424C215.223 56.4097 219.15 70.1234 220.452 84.0901C221.964 98.5945 222.663 112.215 222.549 124.95C201.411 125.304 180.317 125.693 159.179 126.224C159.222 100.469 156.911 81.826 151.691 70.1518Z" fill="#E31018"/>
</svg>
