<svg width="251" height="525" viewBox="0 0 251 525" fill="none" xmlns="http://www.w3.org/2000/svg">
<path d="M88.739 139.242H89.6376C116.38 92.8282 142.824 46.591 168.967 0.0353774H237.001C209.403 50.3055 181.376 99.8681 153.179 149.325C185.27 216.045 217.917 283.508 250.95 352.775C226.789 351.219 202.542 350.04 178.21 349.238C155.917 300.701 133.881 252.766 112.059 205.078L88.5678 244.452C88.5678 278.862 88.5678 313.271 88.5678 347.681C67.031 347.681 45.5084 347.988 24 348.601C24.6846 232.471 25.3978 116.271 26.1394 0H88.9102C88.7961 46.4141 88.739 92.8282 88.739 139.242Z" fill="#E31018"/>
</svg>
