<svg width="222" height="525" viewBox="0 0 222 525" fill="none" xmlns="http://www.w3.org/2000/svg">
<path d="M196.764 0.459896L198.176 61.9798C161.093 60.9892 123.924 60.1756 86.6692 59.5388C87.1542 87.6514 87.6391 115.788 88.124 143.947C123.353 145.362 158.511 147.096 193.598 149.148C194.083 169.643 194.539 190.102 194.967 210.526C159.795 207.672 124.523 205.314 89.151 203.451C90.0924 255.336 91.0051 307.222 91.8894 359.108C70.4952 357.056 49.1009 355.275 27.7067 353.766C26.1093 235.844 24.5404 117.922 23 0C80.8786 0.141506 138.8 0.294805 196.764 0.459896Z" fill="#E31018"/>
</svg>
