<svg width="222" height="525" viewBox="0 0 222 525" fill="none" xmlns="http://www.w3.org/2000/svg">
<path d="M145.86 473.126C134.036 481.874 120.529 488.929 105.895 493.998C83.303 502.029 65.503 502.878 52.2813 495.732C39.0597 488.586 28.7904 474.86 21.7731 453.846C13.8463 427.869 9.27091 401.271 8.12356 374.496C6.06971 342.658 5 306.715 5 267.305C5 227.896 6.06971 192.307 8.20914 159.23C9.5937 130.503 14.3949 101.958 22.5433 74.0078C29.96 50.4234 40.6571 32.1337 54.6347 19.1387C68.5837 6.1909 87.4107 0 110.944 0C134.478 0 153.134 6.08477 166.869 17.6883C180.604 29.2918 191.002 45.282 198.019 65.5528C205.64 89.3132 209.947 113.717 210.856 138.287C212.524 166.588 212.995 197.507 212.396 231.151C211.669 268.933 209.615 303.425 206.192 334.875C203.551 363.259 196.681 391.265 185.739 418.257C196.407 431.04 207.047 443.54 217.659 455.756C205.279 475.237 192.956 495.19 180.69 515.614C168.88 501.793 157.27 487.631 145.86 473.126ZM67.0006 339.615C67.3474 357.94 69.1915 376.224 72.5203 394.343C75.3728 407.88 79.4805 417.09 84.8434 421.972C90.2775 426.889 97.4232 427.88 106.238 425.156C115.582 422.125 123.318 416.444 128.06 409.13C134.663 398.611 139.089 387.251 141.153 375.522C144.78 357.38 147.01 339.065 147.828 320.689C149.169 298.614 150.053 271.999 150.481 240.844C150.909 209.689 150.795 183.345 150.139 161.812C149.82 144.116 148.047 126.458 144.833 108.96C142.009 95.2691 137.773 85.3991 132.253 79.3143C129.767 76.4244 126.408 74.1233 122.512 72.6399C118.616 71.1565 114.318 70.5426 110.046 70.8593C105.521 71.0556 101.122 72.1559 97.2244 74.0659C93.3269 75.9759 90.0476 78.6387 87.6674 81.826C81.9623 88.6891 77.555 99.5615 74.4458 114.443C70.8584 133.286 68.7147 152.298 68.0275 171.364C66.972 194.453 66.3302 222.507 66.102 255.525C65.8738 288.543 66.1733 316.573 67.0006 339.615Z" fill="#E31018"/>
</svg>
