<svg width="2650" height="2574" viewBox="0 0 2650 2574" fill="none" xmlns="http://www.w3.org/2000/svg">
<path d="M946.702 473.636C846.702 409.136 1027.2 532.136 327.701 843.636L528.701 1049.14C753.861 995.883 871.881 948.486 1015.7 721.636C1050.2 630.636 1026.7 525.236 946.702 473.636Z" fill="white"/>
<path d="M327.701 1475.14C704.201 1814.14 2433.2 1801.14 2433.2 1648.14V1847.64C2415.54 1962.61 1942.2 2140.66 230.972 1741.14C230.972 1741.14 -48.7994 1136.14 327.701 1475.14Z" fill="white"/>
<path d="M1862.2 966.636C1802.53 921.969 1730.9 793.936 1921.7 639.136C1983.7 652.636 2120.41 712.436 2171.21 843.636C2222.01 974.836 1986.36 980.303 1862.2 966.636Z" fill="white"/>
<path d="M946.702 473.636C846.702 409.136 1027.2 532.136 327.701 843.636L528.701 1049.14C753.861 995.883 871.881 948.486 1015.7 721.636C1050.2 630.636 1026.7 525.236 946.702 473.636Z" stroke="black"/>
<path d="M327.701 1475.14C704.201 1814.14 2433.2 1801.14 2433.2 1648.14V1847.64C2415.54 1962.61 1942.2 2140.66 230.972 1741.14C230.972 1741.14 -48.7994 1136.14 327.701 1475.14Z" stroke="black"/>
<path d="M1862.2 966.636C1802.53 921.969 1730.9 793.936 1921.7 639.136C1983.7 652.636 2120.41 712.436 2171.21 843.636C2222.01 974.836 1986.36 980.303 1862.2 966.636Z" stroke="black"/>
</svg>
