<svg width="1799" height="535" viewBox="0 0 1799 535" fill="none" xmlns="http://www.w3.org/2000/svg">
<rect width="1799" height="535" fill="#FBF7F7"/>
<path d="M149.76 482.926C137.936 491.674 124.429 498.728 109.795 503.798C87.2029 511.828 69.4029 512.677 56.1812 505.531C42.9596 498.385 32.6903 484.659 25.673 463.645C17.7462 437.668 13.1708 411.07 12.0235 384.296C9.96962 352.457 8.8999 316.514 8.8999 277.105C8.8999 237.695 9.96962 202.106 12.109 169.029C13.4936 140.302 18.2948 111.757 26.4432 83.8071C33.8599 60.2227 44.557 41.933 58.5346 28.938C72.4836 15.9902 91.3106 9.79932 114.844 9.79932C138.378 9.79932 157.034 15.8841 170.769 27.4876C184.504 39.0911 194.902 55.0813 201.919 75.3521C209.54 99.1125 213.847 123.516 214.755 148.086C216.424 176.388 216.895 207.307 216.296 240.95C215.568 278.732 213.515 313.224 210.091 344.674C207.451 373.058 200.581 401.064 189.639 428.057C200.307 440.839 210.947 453.339 221.559 465.556C209.179 485.036 196.856 504.989 184.59 525.413C172.78 511.592 161.17 497.43 149.76 482.926ZM70.9005 349.414C71.2473 367.739 73.0914 386.023 76.4202 404.142C79.2727 417.679 83.3804 426.889 88.7433 431.771C94.1774 436.688 101.323 437.679 110.138 434.955C119.482 431.924 127.217 426.244 131.96 418.929C138.563 408.41 142.989 397.05 145.053 385.322C148.68 367.179 150.91 348.864 151.728 330.488C153.069 308.413 153.953 281.798 154.381 250.643C154.809 219.488 154.695 193.144 154.039 171.612C153.72 153.915 151.947 136.257 148.733 118.759C145.909 105.068 141.673 95.1984 136.153 89.1136C133.667 86.2237 130.308 83.9226 126.412 82.4392C122.516 80.9558 118.218 80.3419 113.946 80.6586C109.421 80.8549 105.022 81.9553 101.124 83.8653C97.2268 85.7753 93.9475 88.438 91.5673 91.6253C85.8622 98.4884 81.4549 109.361 78.3456 124.243C74.7583 143.085 72.6146 162.097 71.9274 181.163C70.8719 204.253 70.2301 232.306 70.0019 265.324C69.7737 298.342 70.0732 326.372 70.9005 349.414Z" fill="#E31018"/>
<path d="M309.618 310.571C309.361 321.184 309.618 330.771 310.473 339.368C310.977 346.776 312.69 354.095 315.565 361.124C317.513 366.223 321.325 370.697 326.476 373.93C329.123 375.283 332.094 376.142 335.183 376.447C338.272 376.753 341.404 376.497 344.362 375.699C351.498 374.368 357.932 371.182 362.718 366.608C367.784 361.639 371.675 355.926 374.185 349.768C377.314 342.301 379.396 334.562 380.39 326.703C381.616 318.071 382.358 308.637 382.615 298.401C384.925 204.889 387.25 111.318 389.589 17.6883L452.317 17.4407L445.514 289.487C445.484 310.702 442.177 331.828 435.672 352.351C430.78 367.599 422.902 382.082 412.353 395.227C403.952 405.761 392.923 414.687 380.005 421.406C368.432 427.325 355.956 431.941 342.907 435.132C331.014 438.089 318.656 439.568 306.237 439.519C300.393 439.435 294.629 438.376 289.291 436.407C283.953 434.437 279.151 431.597 275.173 428.057C266.216 420.628 259.213 408.47 254.164 391.583C249.072 374.673 246.847 351.431 247.446 322.139C249.5 220.868 251.568 119.596 253.65 18.3251C274.531 18.1836 295.44 18.0775 316.378 18.0067C314.125 115.528 311.871 213.05 309.618 310.571Z" fill="#E31018"/>
<path d="M495.02 17.2991H557.791C554.939 141.471 552.086 265.643 549.233 389.815C527.982 392.904 506.773 396.265 485.607 399.897L495.02 17.2991Z" fill="#E31018"/>
<path d="M728.431 79.9511C723.211 68.3122 713.455 62.5104 699.164 62.6873C695.431 62.6899 691.744 63.3655 688.36 64.6669C684.975 65.9682 681.974 67.8642 679.567 70.2225C673.237 77.2651 668.974 85.4279 667.115 94.0663C663.498 108.228 661.195 122.597 660.226 137.049C658.729 154.737 657.787 176.352 657.317 201.859C656.803 229.099 657.217 251.056 658.558 267.73C659.16 280.714 661.456 293.607 665.404 306.184C668.627 315.146 672.806 321.042 677.941 323.873C683.262 326.724 689.608 327.973 695.912 327.41C701.524 326.987 706.942 325.498 711.744 323.059C717.573 319.637 722.041 314.859 724.58 309.333C728.97 300.446 731.934 291.121 733.395 281.598C735.924 266.215 737.168 250.707 737.117 235.184C758.398 234.264 779.678 233.533 800.958 232.99C800.908 251.053 799.479 269.096 796.679 287.01C794.344 302.635 789.166 317.877 781.318 332.221C774.412 344.869 763.684 355.834 750.168 364.06C736.775 372.091 719.531 376.902 698.351 378.706C674.218 380.723 655.135 378.353 641.057 371.065C626.98 363.777 616.154 351.785 609.008 336.078C601.13 317.216 596.632 297.503 595.658 277.565C593.918 254.452 593.362 228.839 593.99 200.727C594.503 172.85 596.186 147.131 599.039 123.57C600.955 102.882 606.222 82.4998 614.699 62.9703C621.168 47.6798 632.524 34.1226 647.561 23.7377C661.724 14.3983 680.508 9.79932 704.042 9.79932C726.434 9.79932 744.035 13.9148 756.843 22.1457C769.581 30.2213 779.49 40.9538 785.554 53.2418C791.963 66.209 795.89 79.9227 797.192 93.8895C798.704 108.394 799.403 122.014 799.289 134.749C778.152 135.103 757.057 135.492 735.919 136.023C735.962 110.269 733.651 91.6253 728.431 79.9511Z" fill="#E31018"/>
<path d="M901.254 155.869H902.153C928.896 109.455 955.339 63.218 981.483 16.6624H1049.52C1021.92 66.9325 993.892 116.495 965.694 165.952C997.785 232.672 1030.43 300.135 1063.47 369.402C1039.3 367.846 1015.06 366.667 990.725 365.865C968.432 317.328 946.396 269.393 924.574 221.705L901.083 261.079C901.083 295.489 901.083 329.898 901.083 364.308C879.546 364.308 858.024 364.615 836.515 365.228C837.2 249.098 837.913 132.898 838.655 16.627H901.426C901.311 63.0411 901.254 109.455 901.254 155.869Z" fill="#E31018"/>
<path d="M1246.51 17.0869L1247.93 78.6068C1210.84 77.6162 1173.67 76.8026 1136.42 76.1658C1136.9 104.278 1137.39 132.415 1137.87 160.574C1173.1 161.989 1208.26 163.723 1243.35 165.775C1243.83 186.27 1244.29 206.729 1244.72 227.153C1209.55 224.299 1174.27 221.941 1138.9 220.078C1139.84 271.963 1140.76 323.849 1141.64 375.735C1120.25 373.683 1098.85 371.902 1077.46 370.393C1075.86 252.471 1074.29 134.549 1072.75 16.627C1130.63 16.7685 1188.55 16.9218 1246.51 17.0869Z" fill="#E31018"/>
<path d="M1274.41 17.193C1295.34 17.193 1316.26 17.193 1337.18 17.4053C1339.84 125.021 1342.5 232.648 1345.19 340.287C1382.5 346.018 1419.58 352.469 1456.44 359.638L1458.1 427.314C1400.34 413.894 1342.03 402.621 1283.18 393.494C1280.33 267.954 1277.41 142.52 1274.41 17.193Z" fill="#E31018"/>
<path d="M1479.24 17.9713L1541.97 18.2897C1544.82 162.485 1547.85 306.68 1551.04 450.875C1530.45 445.167 1509.76 439.766 1489 434.672L1479.24 17.9713Z" fill="#E31018"/>
<path d="M1644.75 18.8557C1658.84 68.7839 1672.77 120.08 1686.55 172.744C1699.02 123.004 1711.63 71.8852 1724.38 19.3864L1792.84 19.8463C1768.71 104.149 1745.34 183.958 1722.45 260.018C1748.38 346.549 1773.8 437.785 1797.97 534.328C1775.84 525.389 1753.54 516.793 1731.09 508.538C1716.38 448.044 1701.41 389.378 1686.21 332.54C1672.4 382.845 1658.71 431.653 1645.13 478.964C1622.88 471.888 1600.5 465.061 1578 458.481C1601.87 391.619 1625.96 321.573 1650.22 247.636C1625.66 167.544 1600.72 91.3423 1575.52 18.3958L1644.75 18.8557Z" fill="#E31018"/>
</svg>
