<svg width="2185" height="945" viewBox="0 0 2185 945" fill="none" xmlns="http://www.w3.org/2000/svg">
<rect width="2185" height="945" fill="white"/>
<path d="M342.76 687.926C330.936 696.674 317.429 703.728 302.795 708.798C280.203 716.828 262.403 717.677 249.181 710.531C235.96 703.385 225.69 689.659 218.673 668.645C210.746 642.668 206.171 616.07 205.023 589.296C202.97 557.457 201.9 521.514 201.9 482.105C201.9 442.695 202.97 407.106 205.109 374.029C206.494 345.302 211.295 316.757 219.443 288.807C226.86 265.223 237.557 246.933 251.535 233.938C265.484 220.99 284.311 214.799 307.844 214.799C331.378 214.799 350.034 220.884 363.769 232.488C377.504 244.091 387.902 260.081 394.919 280.352C402.54 304.113 406.847 328.516 407.755 353.086C409.424 381.388 409.895 412.307 409.296 445.95C408.568 483.732 406.515 518.224 403.091 549.674C400.451 578.058 393.581 606.064 382.639 633.057C393.307 645.839 403.947 658.339 414.559 670.556C402.179 690.036 389.856 709.989 377.59 730.413C365.78 716.592 354.17 702.43 342.76 687.926ZM263.9 554.414C264.247 572.739 266.091 591.023 269.42 609.142C272.273 622.679 276.38 631.889 281.743 636.771C287.177 641.688 294.323 642.679 303.138 639.955C312.482 636.924 320.217 631.244 324.96 623.929C331.563 613.41 335.989 602.05 338.053 590.322C341.68 572.179 343.91 553.864 344.728 535.488C346.069 513.413 346.953 486.798 347.381 455.643C347.809 424.488 347.695 398.144 347.039 376.612C346.72 358.915 344.947 341.257 341.733 323.759C338.909 310.068 334.673 300.198 329.153 294.114C326.667 291.224 323.308 288.923 319.412 287.439C315.516 285.956 311.218 285.342 306.946 285.659C302.421 285.855 298.022 286.955 294.124 288.865C290.227 290.775 286.947 293.438 284.567 296.625C278.862 303.488 274.455 314.361 271.346 329.243C267.758 348.085 265.615 367.097 264.927 386.163C263.872 409.253 263.23 437.306 263.002 470.324C262.774 503.342 263.073 531.372 263.9 554.414Z" fill="#E31018"/>
<path d="M502.618 515.571C502.361 526.184 502.618 535.771 503.473 544.368C503.977 551.776 505.69 559.095 508.565 566.124C510.513 571.223 514.325 575.697 519.476 578.93C522.123 580.283 525.094 581.142 528.183 581.447C531.272 581.753 534.404 581.497 537.362 580.699C544.498 579.368 550.932 576.182 555.718 571.608C560.784 566.639 564.675 560.926 567.185 554.768C570.314 547.301 572.396 539.562 573.39 531.703C574.616 523.071 575.358 513.637 575.615 503.401C577.925 409.889 580.25 316.318 582.589 222.688L645.317 222.441L638.514 494.487C638.484 515.702 635.177 536.828 628.672 557.351C623.78 572.599 615.902 587.082 605.353 600.227C596.952 610.761 585.923 619.687 573.005 626.406C561.432 632.325 548.956 636.941 535.907 640.132C524.014 643.089 511.656 644.568 499.237 644.519C493.393 644.435 487.629 643.376 482.291 641.407C476.953 639.437 472.151 636.597 468.173 633.057C459.216 625.628 452.213 613.47 447.164 596.583C442.072 579.673 439.847 556.431 440.446 527.139C442.5 425.868 444.568 324.596 446.65 223.325C467.531 223.184 488.44 223.077 509.378 223.007C507.125 320.528 504.871 418.05 502.618 515.571Z" fill="#E31018"/>
<path d="M688.02 222.299H750.791C747.939 346.471 745.086 470.643 742.233 594.815C720.982 597.904 699.773 601.265 678.607 604.897L688.02 222.299Z" fill="#E31018"/>
<path d="M921.431 284.951C916.211 273.312 906.455 267.51 892.164 267.687C888.431 267.69 884.744 268.365 881.36 269.667C877.975 270.968 874.974 272.864 872.567 275.223C866.237 282.265 861.974 290.428 860.115 299.066C856.498 313.228 854.195 327.597 853.226 342.049C851.729 359.737 850.787 381.352 850.317 406.859C849.803 434.099 850.217 456.056 851.558 472.73C852.16 485.714 854.456 498.607 858.404 511.184C861.627 520.146 865.806 526.042 870.941 528.873C876.262 531.724 882.608 532.973 888.912 532.41C894.524 531.987 899.942 530.498 904.744 528.059C910.573 524.637 915.041 519.859 917.58 514.333C921.97 505.446 924.934 496.121 926.395 486.598C928.924 471.215 930.168 455.707 930.117 440.184C951.398 439.264 972.678 438.533 993.958 437.99C993.908 456.053 992.479 474.096 989.679 492.01C987.344 507.635 982.166 522.877 974.318 537.221C967.412 549.869 956.684 560.834 943.168 569.06C929.775 577.091 912.531 581.902 891.351 583.706C867.218 585.723 848.135 583.353 834.057 576.065C819.98 568.777 809.154 556.785 802.008 541.078C794.13 522.216 789.632 502.503 788.658 482.565C786.918 459.452 786.362 433.839 786.99 405.727C787.503 377.85 789.186 352.131 792.039 328.57C793.955 307.882 799.222 287.5 807.699 267.97C814.168 252.68 825.524 239.123 840.561 228.738C854.724 219.398 873.508 214.799 897.042 214.799C919.434 214.799 937.035 218.915 949.843 227.146C962.581 235.221 972.49 245.954 978.554 258.242C984.963 271.209 988.89 284.923 990.192 298.889C991.704 313.394 992.403 327.014 992.289 339.749C971.152 340.103 950.057 340.492 928.919 341.023C928.962 315.269 926.651 296.625 921.431 284.951Z" fill="#E31018"/>
<path d="M1094.25 360.869H1095.15C1121.9 314.455 1148.34 268.218 1174.48 221.662H1242.52C1214.92 271.933 1186.89 321.495 1158.69 370.952C1190.79 437.672 1223.43 505.135 1256.47 574.402C1232.3 572.846 1208.06 571.667 1183.73 570.865C1161.43 522.328 1139.4 474.393 1117.57 426.705L1094.08 466.079C1094.08 500.489 1094.08 534.898 1094.08 569.308C1072.55 569.308 1051.02 569.615 1029.52 570.228C1030.2 454.098 1030.91 337.898 1031.66 221.627H1094.43C1094.31 268.041 1094.25 314.455 1094.25 360.869Z" fill="#E31018"/>
<path d="M1439.52 222.087L1440.93 283.607C1403.84 282.616 1366.67 281.803 1329.42 281.166C1329.91 309.278 1330.39 337.415 1330.88 365.574C1366.1 366.989 1401.26 368.723 1436.35 370.775C1436.83 391.27 1437.29 411.729 1437.72 432.153C1402.55 429.299 1367.27 426.941 1331.9 425.078C1332.84 476.963 1333.76 528.849 1334.64 580.735C1313.25 578.683 1291.85 576.902 1270.46 575.393C1268.86 457.471 1267.29 339.549 1265.75 221.627C1323.63 221.769 1381.55 221.922 1439.52 222.087Z" fill="#E31018"/>
<path d="M1467.41 222.193C1488.34 222.193 1509.26 222.193 1530.18 222.405C1532.84 330.021 1535.5 437.648 1538.19 545.287C1575.5 551.018 1612.58 557.469 1649.44 564.638L1651.1 632.314C1593.34 618.894 1535.03 607.621 1476.18 598.494C1473.33 472.954 1470.41 347.52 1467.41 222.193Z" fill="#E31018"/>
<path d="M1672.24 222.971L1734.97 223.29C1737.82 367.485 1740.85 511.68 1744.04 655.875C1723.45 650.167 1702.76 644.766 1682 639.672L1672.24 222.971Z" fill="#E31018"/>
<path d="M1837.75 223.856C1851.84 273.784 1865.77 325.08 1879.55 377.744C1892.02 328.004 1904.63 276.885 1917.38 224.386L1985.84 224.846C1961.71 309.149 1938.34 388.958 1915.45 465.018C1941.38 551.549 1966.8 642.785 1990.97 739.328C1968.84 730.389 1946.54 721.793 1924.09 713.538C1909.38 653.044 1894.41 594.378 1879.21 537.54C1865.4 587.845 1851.71 636.653 1838.13 683.964C1815.88 676.888 1793.5 670.061 1771 663.481C1794.87 596.619 1818.96 526.573 1843.22 452.636C1818.66 372.544 1793.72 296.342 1768.52 223.396L1837.75 223.856Z" fill="#E31018"/>
</svg>
