<svg id="Calque_1" data-name="Calque 1" xmlns="http://www.w3.org/2000/svg" viewBox="0 0 420.44 151.23"><defs><style>.cls-1{fill:#e31018;}</style></defs><path class="cls-1" d="M35,136.51a33.31,33.31,0,0,1-9.34,5.9c-5.28,2.27-9.44,2.51-12.53.49S7.64,137,6,131.06a107.21,107.21,0,0,1-3.19-22.43c-.48-9-.73-19.16-.73-30.3s.25-21.2.75-30.55A123.85,123.85,0,0,1,6.18,23.69q2.6-10,7.5-15.51c3.26-3.66,7.66-5.41,13.16-5.41s9.86,1.72,13.07,5,5.64,7.8,7.28,13.53a91.06,91.06,0,0,1,3,20.56c.39,8,.5,16.74.36,26.25-.17,10.68-.65,20.43-1.45,29.32A97.76,97.76,0,0,1,44.32,121q3.74,5.42,7.46,10.6-4.34,8.26-8.64,16.92Q39,142.66,35,136.51ZM16.57,98.77a115,115,0,0,0,1.29,15.47q1,5.74,2.88,7.81c1.27,1.39,2.94,1.67,5,.9a9.88,9.88,0,0,0,5.1-4.53,30,30,0,0,0,3.06-9.5,122.73,122.73,0,0,0,1.56-15.5q.47-9.36.62-22.57T36,48.51a110.45,110.45,0,0,0-1.24-14.94c-.66-3.87-1.65-6.66-2.94-8.38a5.74,5.74,0,0,0-5.19-2.39,6.55,6.55,0,0,0-5.23,3.1q-2,2.91-3.09,9.22a128,128,0,0,0-1.5,16.09Q16.44,61,16.36,75T16.57,98.77Z"/><path class="cls-1" d="M72.36,87.79c-.06,3,0,5.71.2,8.14a23.28,23.28,0,0,0,1.19,6.15,7.31,7.31,0,0,0,2.55,3.62,5,5,0,0,0,4.18.5,8,8,0,0,0,4.29-2.57,14.64,14.64,0,0,0,2.68-4.76,29.19,29.19,0,0,0,1.45-6.52q.43-3.66.52-8Q90.23,44.7,91.05,5l14.66-.07-1.59,76.9a70.42,70.42,0,0,1-2.3,17.77,40.88,40.88,0,0,1-5.45,12.12,25,25,0,0,1-7.56,7.4A35.75,35.75,0,0,1,80.14,123a29.27,29.27,0,0,1-8.57,1.24A10.15,10.15,0,0,1,64.31,121q-3.14-3.15-4.91-10.31c-1.19-4.78-1.71-11.35-1.57-19.63q.72-42.94,1.45-85.88,7.32-.06,14.66-.09Q73.15,46.44,72.36,87.79Z"/><path class="cls-1" d="M115.69,4.89l14.67,0q-1,52.65-2,105.3-7.45,1.31-14.87,2.85Z"/><path class="cls-1" d="M170.24,22.6c-1.22-3.29-3.5-4.93-6.84-4.88a6,6,0,0,0-4.58,2.13,16,16,0,0,0-2.91,6.74,80.33,80.33,0,0,0-1.61,12.15c-.35,5-.57,11.11-.68,18.32q-.18,11.55.29,18.62a51.07,51.07,0,0,0,1.6,10.87q1.13,3.8,2.93,5a6.45,6.45,0,0,0,4.2,1,8.55,8.55,0,0,0,3.7-1.23,8.43,8.43,0,0,0,3-3.88,31.08,31.08,0,0,0,2.06-7.84,95.51,95.51,0,0,0,.87-13.12q7.46-.39,14.92-.62a121.32,121.32,0,0,1-1,15.27,44.14,44.14,0,0,1-3.59,12.78,22.85,22.85,0,0,1-7.28,9c-3.13,2.27-7.16,3.63-12.11,4.14-5.64.57-10.1-.1-13.39-2.16S144,99.44,142.33,95a57.81,57.81,0,0,1-3.12-16.54q-.61-9.8-.39-21.72Q139,44.92,140,34.93a65.52,65.52,0,0,1,3.66-17.13,25.36,25.36,0,0,1,7.68-11.09c3.31-2.64,7.7-3.94,13.2-3.94q7.85,0,12.34,3.49a21.14,21.14,0,0,1,6.71,8.79,38.12,38.12,0,0,1,2.72,11.49q.53,6.15.49,11.55c-4.94.1-9.87.21-14.81.36C172,31.17,171.46,25.9,170.24,22.6Z"/><path class="cls-1" d="M210.63,44.06h.21c6.25-13.12,12.43-26.19,18.54-39.35h15.9c-6.45,14.21-13,28.22-19.59,42.2,7.5,18.86,15.13,37.93,22.85,57.51q-8.47-.66-17-1c-5.21-13.72-10.36-27.27-15.46-40.75l-5.49,11.13q0,14.59,0,29.18-7.55,0-15.09.26Q195.74,54,196,4.7h14.67Q210.63,24.38,210.63,44.06Z"/><path class="cls-1" d="M291.32,4.83l.33,17.39q-13-.42-26.06-.69.17,11.92.34,23.86,12.35.6,24.65,1.47.17,8.69.32,17.35-12.33-1.21-24.73-2,.33,22,.64,44-7.5-.87-15-1.51-.56-50-1.1-100Q271,4.76,291.32,4.83Z"/><path class="cls-1" d="M297.84,4.86c4.89,0,9.78,0,14.67.06q.93,45.63,1.87,91.27,13.08,2.43,26,5.47l.39,19.13q-20.25-5.69-40.88-9.56Q298.89,58,297.84,4.86Z"/><path class="cls-1" d="M345.71,5.08l14.66.09q1,61.14,2.12,122.28-7.22-2.42-14.5-4.58Z"/><path class="cls-1" d="M384.39,5.33q4.94,21.17,9.77,43.5Q398.53,27.74,403,5.48l16,.13C413.36,29.44,407.9,52,402.55,73.5c6.06,24.46,12,50.25,17.65,77.54q-7.76-3.79-15.63-7.29Q399.41,118.1,394.08,94q-4.84,21.33-9.6,41.39-7.8-3-15.69-5.79C374.37,110.7,380,90.9,385.67,70c-5.74-22.64-11.57-44.18-17.46-64.8Z"/></svg>