<svg width="421" height="152" viewBox="0 0 421 152" fill="none" xmlns="http://www.w3.org/2000/svg">
<g clip-path="url(#clip0_2_2)">
<rect width="420.44" height="151.23" fill="black"/>
<path d="M35 136.51C32.2368 138.983 29.08 140.977 25.66 142.41C20.38 144.68 16.22 144.92 13.13 142.9C10.04 140.88 7.64 137 6 131.06C4.14745 123.717 3.07815 116.198 2.81 108.63C2.33 99.63 2.08 89.47 2.08 78.33C2.08 67.19 2.33 57.13 2.83 47.78C3.15358 39.6595 4.27566 31.5906 6.18 23.69C7.91334 17.0233 10.4133 11.8533 13.68 8.18C16.94 4.52 21.34 2.77 26.84 2.77C32.34 2.77 36.7 4.49 39.91 7.77C43.12 11.05 45.55 15.57 47.19 21.3C48.9712 28.0164 49.9777 34.9147 50.19 41.86C50.58 49.86 50.69 58.6 50.55 68.11C50.38 78.79 49.9 88.54 49.1 97.43C48.4828 105.453 46.8773 113.37 44.32 121C46.8133 124.613 49.3 128.147 51.78 131.6C48.8867 137.107 46.0067 142.747 43.14 148.52C40.38 144.613 37.6667 140.61 35 136.51ZM16.57 98.77C16.6511 103.95 17.0821 109.118 17.86 114.24C18.5267 118.067 19.4867 120.67 20.74 122.05C22.01 123.44 23.68 123.72 25.74 122.95C27.9239 122.093 29.7317 120.488 30.84 118.42C32.3833 115.446 33.4176 112.235 33.9 108.92C34.7477 103.792 35.2688 98.6145 35.46 93.42C35.7733 87.18 35.98 79.6567 36.08 70.85C36.18 62.0433 36.1533 54.5967 36 48.51C35.9255 43.5077 35.5112 38.5162 34.76 33.57C34.1 29.7 33.11 26.91 31.82 25.19C31.2389 24.3731 30.4541 23.7226 29.5435 23.3033C28.633 22.884 27.6285 22.7105 26.63 22.8C25.5726 22.8555 24.5444 23.1665 23.6335 23.7064C22.7227 24.2463 21.9563 24.999 21.4 25.9C20.0667 27.84 19.0367 30.9133 18.31 35.12C17.4716 40.4464 16.9706 45.8204 16.81 51.21C16.5633 57.7367 16.4133 65.6667 16.36 75C16.3067 84.3333 16.3767 92.2567 16.57 98.77Z" fill="#E31018"/>
<path d="M72.36 87.79C72.3 90.79 72.36 93.5 72.56 95.93C72.6778 98.0242 73.0781 100.093 73.75 102.08C74.2053 103.521 75.0962 104.786 76.3 105.7C76.9185 106.082 77.6129 106.325 78.3348 106.411C79.0567 106.498 79.7888 106.426 80.48 106.2C82.1479 105.824 83.6514 104.923 84.77 103.63C85.9541 102.226 86.8632 100.611 87.45 98.87C88.1812 96.7593 88.6677 94.5716 88.9 92.35C89.1867 89.91 89.36 87.2433 89.42 84.35C89.96 57.9167 90.5033 31.4667 91.05 4.99999L105.71 4.92999L104.12 81.83C104.113 87.8271 103.34 93.7988 101.82 99.6C100.677 103.91 98.8356 108.004 96.37 111.72C94.4067 114.698 91.829 117.221 88.81 119.12C86.1054 120.793 83.1897 122.098 80.14 123C77.3606 123.836 74.4723 124.254 71.57 124.24C70.2041 124.216 68.8571 123.917 67.6096 123.36C66.3621 122.804 65.2398 122.001 64.31 121C62.2167 118.9 60.58 115.463 59.4 110.69C58.21 105.91 57.69 99.34 57.83 91.06C58.31 62.4333 58.7933 33.8067 59.28 5.17999C64.16 5.13999 69.0467 5.10999 73.94 5.08999C73.4133 32.6567 72.8867 60.2233 72.36 87.79Z" fill="#E31018"/>
<path d="M115.69 4.89H130.36C129.693 39.99 129.027 75.09 128.36 110.19C123.393 111.063 118.437 112.013 113.49 113.04L115.69 4.89Z" fill="#E31018"/>
<path d="M170.24 22.6C169.02 19.31 166.74 17.67 163.4 17.72C162.528 17.7207 161.666 17.9117 160.875 18.2796C160.084 18.6474 159.383 19.1834 158.82 19.85C157.341 21.8408 156.344 24.1482 155.91 26.59C155.065 30.5931 154.526 34.6549 154.3 38.74C153.95 43.74 153.73 49.85 153.62 57.06C153.5 64.76 153.597 70.9667 153.91 75.68C154.051 79.3503 154.587 82.9948 155.51 86.55C156.263 89.0833 157.24 90.75 158.44 91.55C159.684 92.3559 161.167 92.709 162.64 92.55C163.952 92.4305 165.218 92.0095 166.34 91.32C167.702 90.3526 168.747 89.0021 169.34 87.44C170.366 84.9278 171.059 82.2921 171.4 79.6C171.991 75.2519 172.282 70.8681 172.27 66.48C177.243 66.22 182.217 66.0133 187.19 65.86C187.178 70.966 186.844 76.0661 186.19 81.13C185.644 85.5466 184.434 89.8553 182.6 93.91C180.986 97.4851 178.479 100.585 175.32 102.91C172.19 105.18 168.16 106.54 163.21 107.05C157.57 107.62 153.11 106.95 149.82 104.89C146.53 102.83 144 99.44 142.33 95C140.489 89.6684 139.438 84.096 139.21 78.46C138.803 71.9267 138.673 64.6867 138.82 56.74C138.94 48.86 139.333 41.59 140 34.93C140.448 29.0819 141.679 23.3204 143.66 17.8C145.172 13.4778 147.826 9.64553 151.34 6.71C154.65 4.07 159.04 2.77 164.54 2.77C169.773 2.77 173.887 3.93334 176.88 6.26C179.857 8.54274 182.173 11.5765 183.59 15.05C185.088 18.7155 186.006 22.592 186.31 26.54C186.663 30.64 186.827 34.49 186.8 38.09C181.86 38.19 176.93 38.3 171.99 38.45C172 31.17 171.46 25.9 170.24 22.6Z" fill="#E31018"/>
<path d="M210.63 44.06H210.84C217.09 30.94 223.27 17.87 229.38 4.71H245.28C238.83 18.92 232.28 32.93 225.69 46.91C233.19 65.77 240.82 84.84 248.54 104.42C242.893 103.98 237.227 103.647 231.54 103.42C226.33 89.7 221.18 76.15 216.08 62.67L210.59 73.8C210.59 83.5267 210.59 93.2533 210.59 102.98C205.557 102.98 200.527 103.067 195.5 103.24C195.66 70.4133 195.827 37.5667 196 4.7H210.67C210.643 17.82 210.63 30.94 210.63 44.06Z" fill="#E31018"/>
<path d="M291.32 4.83L291.65 22.22C282.983 21.94 274.297 21.71 265.59 21.53C265.703 29.4767 265.817 37.43 265.93 45.39C274.163 45.79 282.38 46.28 290.58 46.86C290.693 52.6533 290.8 58.4367 290.9 64.21C282.68 63.4033 274.437 62.7367 266.17 62.21C266.39 76.8767 266.603 91.5433 266.81 106.21C261.81 105.63 256.81 105.127 251.81 104.7C251.437 71.3667 251.07 38.0333 250.71 4.7C264.237 4.74 277.773 4.78333 291.32 4.83Z" fill="#E31018"/>
<path d="M297.84 4.86C302.73 4.86 307.62 4.86 312.51 4.92C313.13 35.34 313.753 65.7633 314.38 96.19C323.1 97.81 331.767 99.6333 340.38 101.66L340.77 120.79C327.27 116.997 313.643 113.81 299.89 111.23C299.223 75.7433 298.54 40.2867 297.84 4.86Z" fill="#E31018"/>
<path d="M345.71 5.08L360.37 5.17C361.037 45.93 361.743 86.69 362.49 127.45C357.677 125.837 352.843 124.31 347.99 122.87L345.71 5.08Z" fill="#E31018"/>
<path d="M384.39 5.33C387.683 19.4433 390.94 33.9433 394.16 48.83C397.073 34.77 400.02 20.32 403 5.48L419 5.61C413.36 29.44 407.9 52 402.55 73.5C408.61 97.96 414.55 123.75 420.2 151.04C415.027 148.513 409.817 146.083 404.57 143.75C401.13 126.65 397.633 110.067 394.08 94C390.853 108.22 387.653 122.017 384.48 135.39C379.28 133.39 374.05 131.46 368.79 129.6C374.37 110.7 380 90.9 385.67 70C379.93 47.36 374.1 25.82 368.21 5.2L384.39 5.33Z" fill="#E31018"/>
</g>
<defs>
<clipPath id="clip0_2_2">
<rect width="420.44" height="151.23" fill="white"/>
</clipPath>
</defs>
</svg>
