<svg width="229" height="525" viewBox="0 0 229 525" fill="none" xmlns="http://www.w3.org/2000/svg">
<path d="M86.2669 293.13C86.0102 303.743 86.2669 313.33 87.1227 321.927C87.6267 329.336 89.3395 336.654 92.2145 343.683C94.1627 348.782 97.9747 353.256 103.126 356.49C105.772 357.842 108.743 358.701 111.832 359.006C114.921 359.312 118.054 359.057 121.011 358.259C128.148 356.928 134.581 353.741 139.367 349.167C144.434 344.198 148.324 338.486 150.835 332.328C153.964 324.861 156.045 317.122 157.039 309.262C158.266 300.63 159.007 291.196 159.264 280.961C161.575 187.449 163.9 93.8777 166.239 0.247637L228.967 0L222.163 272.046C222.134 293.262 218.827 314.387 212.322 334.91C207.429 350.158 199.552 364.642 189.002 377.786C180.602 388.321 169.572 397.247 156.654 403.965C145.082 409.884 132.606 414.501 119.556 417.691C107.664 420.649 95.3053 422.127 82.8866 422.078C77.0422 421.994 71.2784 420.936 65.9406 418.966C60.6028 416.997 55.8007 414.157 51.8222 410.616C42.8651 403.187 35.8621 391.029 30.813 374.143C25.7212 357.233 23.4962 333.99 24.0953 304.698C26.1491 203.427 28.2172 102.156 30.2996 0.884414C51.1804 0.742908 72.0897 0.63678 93.0275 0.566026C90.774 98.0875 88.5205 195.609 86.2669 293.13Z" fill="#E31018"/>
</svg>
